<svg width="32" height="32" viewBox="0 0 32 32" fill="none" xmlns="http://www.w3.org/2000/svg">
<path d="M8 20H15.5V22L16 24H6.5V22L8 20Z" fill="#AEE6B9" stroke="#AEE6B9"/>
<path d="M27 20.4999H26.835L25.03 16.2899C25.3361 16.424 25.6659 16.4954 26 16.4999C26.1326 16.4999 26.2598 16.4472 26.3536 16.3534C26.4473 16.2597 26.5 16.1325 26.5 15.9999V11.9999C26.5 11.8673 26.4473 11.7401 26.3536 11.6463C26.2598 11.5526 26.1326 11.4999 26 11.4999C25.4793 11.5027 24.9725 11.668 24.5503 11.9728C24.1281 12.2776 23.8116 12.7066 23.645 13.1999C23.4979 12.9945 23.3101 12.8215 23.0934 12.6916C22.8766 12.5617 22.6355 12.4778 22.385 12.4449C22.0674 12.4039 21.7449 12.4242 21.435 12.5049H21C20.155 12.5049 19.78 12.0049 19.19 11.1899L18.895 10.7749C19.1976 10.7595 19.4907 10.6646 19.745 10.4999C19.9379 10.3598 20.1013 10.1831 20.2257 9.97971C20.3501 9.77636 20.4331 9.55042 20.47 9.31489C20.6325 9.22127 20.7746 9.09605 20.888 8.94663C21.0013 8.79722 21.0836 8.62661 21.13 8.44489C21.1511 8.30156 21.1371 8.15524 21.0892 8.0185C21.0413 7.88177 20.961 7.75871 20.855 7.65989C20.6508 7.31035 20.539 6.91459 20.53 6.50989C20.6591 6.50216 20.7802 6.44472 20.8678 6.34962C20.9554 6.25453 21.0028 6.12918 21 5.99989C21 5.46994 20.8948 4.94527 20.6903 4.45635C20.4859 3.96742 20.1863 3.524 19.809 3.15184C19.4318 2.77968 18.9843 2.48619 18.4926 2.28844C18.001 2.09069 17.4749 1.9926 16.945 1.99989C15.9051 2.02036 14.9136 2.44257 14.1781 3.17801C13.4427 3.91345 13.0205 4.90502 13 5.94489C12.9907 6.47504 13.0876 7.00168 13.2851 7.49375C13.4826 7.98582 13.7767 8.43334 14.15 8.80989C14.2606 8.91985 14.3775 9.02335 14.5 9.11989C12.57 9.58989 11.555 11.3999 11.035 12.9699C10.887 12.8208 10.711 12.7025 10.517 12.6218C10.3231 12.5411 10.1151 12.4997 9.905 12.4999H4.595C4.32835 12.4994 4.06587 12.5661 3.8317 12.6936C3.59754 12.8212 3.39923 13.0056 3.255 13.2299C3.18273 13.3413 3.15767 13.4768 3.18533 13.6067C3.21299 13.7366 3.29111 13.8501 3.4025 13.9224C3.51389 13.9947 3.64943 14.0197 3.7793 13.9921C3.90917 13.9644 4.02273 13.8863 4.095 13.7749C4.14887 13.6914 4.22295 13.6229 4.31035 13.5757C4.39776 13.5285 4.49567 13.5042 4.595 13.5049H5.5V15.0049C5.5 15.1375 5.55268 15.2647 5.64645 15.3584C5.74021 15.4522 5.86739 15.5049 6 15.5049H8.5C8.63261 15.5049 8.75979 15.4522 8.85355 15.3584C8.94732 15.2647 9 15.1375 9 15.0049V13.4999H9.905C9.98314 13.4999 10.0605 13.5153 10.1327 13.5452C10.2049 13.5751 10.2705 13.6189 10.3257 13.6742C10.381 13.7294 10.4248 13.795 10.4547 13.8672C10.4846 13.9394 10.5 14.0168 10.5 14.0949V17.9099C10.4987 18.0668 10.4354 18.2169 10.324 18.3274C10.2125 18.4379 10.0619 18.4999 9.905 18.4999H4.595C4.45181 18.5039 4.31214 18.4551 4.20247 18.363C4.0928 18.2708 4.02076 18.1416 4 17.9999H5C5.13261 17.9999 5.25979 17.9472 5.35355 17.8534C5.44732 17.7597 5.5 17.6325 5.5 17.4999C5.5 17.3673 5.44732 17.2401 5.35355 17.1463C5.25979 17.0526 5.13261 16.9999 5 16.9999H4V15.9999H4.5C4.63261 15.9999 4.75979 15.9472 4.85355 15.8534C4.94732 15.7597 5 15.6325 5 15.4999C5 15.3673 4.94732 15.2401 4.85355 15.1463C4.75979 15.0526 4.63261 14.9999 4.5 14.9999H2C1.86739 14.9999 1.74021 15.0526 1.64645 15.1463C1.55268 15.2401 1.5 15.3673 1.5 15.4999C1.5 15.6325 1.55268 15.7597 1.64645 15.8534C1.74021 15.9472 1.86739 15.9999 2 15.9999H3V16.9999H1C0.867392 16.9999 0.740215 17.0526 0.646447 17.1463C0.552678 17.2401 0.5 17.3673 0.5 17.4999C0.5 17.6325 0.552678 17.7597 0.646447 17.8534C0.740215 17.9472 0.867392 17.9999 1 17.9999H3C3.02296 18.4049 3.19988 18.7859 3.49454 19.0647C3.7892 19.3436 4.17931 19.4993 4.585 19.4999H7.085C6.85363 19.7268 6.65656 19.9862 6.5 20.2699C5.8323 21.5793 5.48932 23.0301 5.5 24.4999C5.5 24.6325 5.55268 24.7597 5.64645 24.8534C5.74021 24.9472 5.86739 24.9999 6 24.9999H7.535C7.66296 25.9608 8.13553 26.8426 8.86485 27.4812C9.59417 28.1199 10.5306 28.4719 11.5 28.4719C12.4694 28.4719 13.4058 28.1199 14.1351 27.4812C14.8645 26.8426 15.337 25.9608 15.465 24.9999H23.035C23.1312 25.7638 23.4459 26.4837 23.9412 27.0732C24.4366 27.6626 25.0915 28.0966 25.8274 28.323C26.5633 28.5494 27.3489 28.5587 28.0899 28.3496C28.8309 28.1405 29.4958 27.722 30.0048 27.1443C30.5138 26.5666 30.8453 25.8543 30.9594 25.0928C31.0736 24.3314 30.9655 23.5532 30.6483 22.8517C30.331 22.1501 29.818 21.555 29.1709 21.1379C28.5237 20.7207 27.7699 20.4992 27 20.4999ZM8 14.4999H6.5V13.4999H8V14.4999ZM25.5 12.5849V15.4149C25.207 15.3118 24.9532 15.1203 24.7737 14.8669C24.5942 14.6134 24.4978 14.3105 24.4978 13.9999C24.4978 13.6893 24.5942 13.3864 24.7737 13.1329C24.9532 12.8794 25.207 12.688 25.5 12.5849ZM22.24 13.4299C22.436 13.4592 22.6181 13.5485 22.7614 13.6855C22.9046 13.8225 23.0019 14.0004 23.04 14.1949L23.17 14.4999C22.4739 14.8577 21.6972 15.03 20.915 14.9999C20.8461 14.7029 20.8822 14.3912 21.0171 14.1177C21.152 13.8443 21.3774 13.626 21.655 13.4999C21.8436 13.4387 22.0426 13.4166 22.24 13.4349V13.4299ZM19.775 8.54989C19.6918 8.59182 19.6219 8.65617 19.5733 8.73568C19.5248 8.8152 19.4994 8.90671 19.5 8.99989C19.4963 9.12576 19.4664 9.24948 19.4121 9.36313C19.3579 9.47677 19.2805 9.57785 19.185 9.65989C18.9 9.84989 18.37 9.80489 17.685 9.53489C17.6484 9.53084 17.6116 9.53084 17.575 9.53489L17.5 9.46989V7.55489C17.5 7.27509 17.6112 7.00674 17.809 6.80889C18.0069 6.61104 18.2752 6.49989 18.555 6.49989H19.5C19.5157 7.14712 19.7189 7.77588 20.085 8.30989C19.9945 8.40665 19.89 8.48924 19.775 8.55489V8.54989ZM14 5.95489C14.025 5.17911 14.3444 4.44194 14.8932 3.89309C15.442 3.34425 16.1792 3.02489 16.955 2.99989H17C17.7093 2.99943 18.3958 3.2503 18.9377 3.70797C19.4796 4.16564 19.8418 4.80051 19.96 5.49989H18.555C18.0104 5.50121 17.4885 5.71814 17.1034 6.10324C16.7183 6.48835 16.5013 7.01028 16.5 7.55489V8.95989C15.7938 8.84059 15.1536 8.47257 14.695 7.92235C14.2365 7.37214 13.99 6.67604 14 5.95989V5.95489ZM15.5 9.99989C17.135 9.99989 17.735 10.8549 18.37 11.7549C18.83 12.4149 19.37 13.1349 20.27 13.3899C19.9869 13.8473 19.8589 14.3839 19.905 14.9199C19.2844 14.7843 18.6991 14.5203 18.1867 14.1448C17.6743 13.7694 17.2462 13.2908 16.93 12.7399C16.9028 12.6738 16.8617 12.6143 16.8095 12.5655C16.7573 12.5166 16.6953 12.4795 16.6275 12.4567C16.5598 12.4338 16.488 12.4258 16.4169 12.433C16.3458 12.4403 16.277 12.4627 16.2153 12.4988C16.1536 12.5349 16.1004 12.5838 16.0592 12.6422C16.018 12.7006 15.9898 12.7672 15.9765 12.8374C15.9632 12.9076 15.9651 12.9799 15.9821 13.0493C15.9991 13.1188 16.0308 13.1837 16.075 13.2399C16.2563 13.544 16.4637 13.8318 16.695 14.0999L16.65 14.1299C16.1839 14.666 15.8561 15.308 15.695 15.9999H11.5V15.4999C11.535 15.1949 12.105 9.99989 15.5 9.99989ZM11.5 17.9049V16.9999H16C16.1 16.9999 18.5 17.0299 18.5 19.4999V21.9999H16.5V20.9999C16.5126 20.6682 16.4566 20.3375 16.3355 20.0284C16.2143 19.7194 16.0306 19.4387 15.7959 19.204C15.5612 18.9693 15.2805 18.7856 14.9715 18.6644C14.6624 18.5433 14.3317 18.4873 14 18.4999H11.385C11.4614 18.3108 11.5004 18.1088 11.5 17.9049ZM11.5 27.4999C10.7916 27.4992 10.1062 27.2478 9.56539 26.7902C9.02454 26.3326 8.66307 25.6984 8.545 24.9999H9.57C9.68514 25.4236 9.9365 25.7976 10.2853 26.0643C10.6341 26.3309 11.0609 26.4754 11.5 26.4754C11.9391 26.4754 12.3659 26.3309 12.7147 26.0643C13.0635 25.7976 13.3149 25.4236 13.43 24.9999H14.455C14.3369 25.6984 13.9755 26.3326 13.4346 26.7902C12.8938 27.2478 12.2084 27.4992 11.5 27.4999ZM10.64 24.9999H12.36C12.2715 25.1491 12.1456 25.2727 11.9948 25.3586C11.844 25.4444 11.6735 25.4896 11.5 25.4896C11.3265 25.4896 11.156 25.4444 11.0052 25.3586C10.8544 25.2727 10.7285 25.1491 10.64 24.9999ZM6.5 23.9999C6.56379 22.849 6.87413 21.7254 7.41 20.7049C7.60902 20.3348 7.90602 20.0267 8.26848 19.8141C8.63094 19.6016 9.04488 19.4929 9.465 19.4999H14C14.1998 19.4891 14.3997 19.5204 14.5866 19.592C14.7735 19.6636 14.9432 19.7737 15.0847 19.9152C15.2262 20.0567 15.3363 20.2264 15.4079 20.4133C15.4794 20.6002 15.5108 20.8001 15.5 20.9999V22.4999C15.5 23.0408 15.6754 23.5671 16 23.9999H6.5ZM18 23.9999C17.6905 23.999 17.3889 23.9025 17.1365 23.7234C16.884 23.5444 16.6932 23.2917 16.59 22.9999H19C19.1305 22.9915 19.2614 23.0104 19.3842 23.0555C19.507 23.1005 19.619 23.1707 19.7131 23.2615C19.8072 23.3524 19.8814 23.4618 19.9308 23.5829C19.9802 23.7041 20.0037 23.8341 20 23.9649C19.8342 23.987 19.6672 23.9987 19.5 23.9999H18ZM21.205 23.4149C21.1328 23.4966 21.0504 23.5689 20.96 23.6299C20.9051 23.2519 20.7358 22.8997 20.4747 22.6208C20.2137 22.3419 19.8736 22.1497 19.5 22.0699V19.4999C19.5451 18.6841 19.2841 17.8808 18.768 17.2473C18.252 16.6138 17.5181 16.1957 16.71 16.0749C16.8382 15.6264 17.0578 15.2093 17.355 14.8499C17.3679 14.8324 17.3796 14.814 17.39 14.7949C18.1661 15.4244 19.1 15.8291 20.09 15.9649L21.5 22.0949C21.5792 22.5566 21.4732 23.0308 21.205 23.4149ZM22.5 21.8899L21.125 15.9999C21.9711 16.0077 22.807 15.8158 23.565 15.4399L25.925 20.9399L23.745 23.9999H22C22.2194 23.6991 22.3767 23.3576 22.4625 22.9953C22.5484 22.633 22.5611 22.2572 22.5 21.8899ZM27 23.9999H26.14C26.2501 23.8092 26.42 23.6603 26.6233 23.576C26.8267 23.4918 27.0522 23.477 27.2648 23.534C27.4775 23.5909 27.6654 23.7165 27.7994 23.8911C27.9334 24.0658 28.006 24.2798 28.006 24.4999C28.006 24.72 27.9334 24.934 27.7994 25.1087C27.6654 25.2833 27.4775 25.4088 27.2648 25.4658C27.0522 25.5228 26.8267 25.508 26.6233 25.4238C26.42 25.3395 26.2501 25.1905 26.14 24.9999H27C27.1326 24.9999 27.2598 24.9472 27.3536 24.8534C27.4473 24.7597 27.5 24.6325 27.5 24.4999C27.5 24.3673 27.4473 24.2401 27.3536 24.1463C27.2598 24.0526 27.1326 23.9999 27 23.9999ZM24.97 23.9999L25.145 23.7549C25.1148 23.8349 25.0897 23.9167 25.07 23.9999H24.97ZM27 27.4999C26.2916 27.4992 25.6062 27.2478 25.0654 26.7902C24.5245 26.3326 24.1631 25.6984 24.045 24.9999H25.07C25.1795 25.4216 25.4237 25.7961 25.7656 26.0663C26.1074 26.3365 26.5282 26.4877 26.9638 26.4968C27.3995 26.506 27.8262 26.3726 28.1791 26.117C28.5319 25.8614 28.7917 25.4975 28.9188 25.0808C29.0459 24.664 29.0335 24.2171 28.8833 23.808C28.7331 23.399 28.4535 23.0502 28.0869 22.8146C27.7203 22.5791 27.2868 22.4697 26.8523 22.5032C26.4179 22.5366 26.0062 22.711 25.68 22.9999L26.745 21.4999C26.83 21.4999 26.915 21.4999 27 21.4999C27.7956 21.4999 28.5587 21.816 29.1213 22.3786C29.6839 22.9412 30 23.7042 30 24.4999C30 25.2955 29.6839 26.0586 29.1213 26.6212C28.5587 27.1838 27.7956 27.4999 27 27.4999Z" fill="#024430"/>
</svg>
