<?xml version="1.0" encoding="utf-8"?>
<!-- Generator: Adobe Illustrator 25.2.3, SVG Export Plug-In . SVG Version: 6.00 Build 0)  -->
<svg version="1.1" id="Capa_1" xmlns="http://www.w3.org/2000/svg" xmlns:xlink="http://www.w3.org/1999/xlink" x="0px" y="0px"
	 viewBox="0 0 441.2 156.2" style="enable-background:new 0 0 441.2 156.2;" xml:space="preserve">
<style type="text/css">
	.st0{fill:#FFFFFF;}
</style>
<g>
	<path class="st0" d="M270.4,38.5c-15.5,0-27.2,6.3-35,16V10.7h-11v79.1c0,0.4,0,0.7,0,1.1l0,0v52.3h11V89.7
		c0.4-23.4,11.3-40.2,35-40.2c24.1,0,35,17.4,35,41.4v52.3h11V90.9l0,0C316.4,60.8,300.5,38.5,270.4,38.5"/>
	<path class="st0" d="M362.7,101.9c0-7.6,6.2-13.8,13.8-13.8c7.6,0,13.8,6.2,13.8,13.8c0,7.6-6.2,13.8-13.8,13.8
		C368.9,115.7,362.7,109.5,362.7,101.9"/>
	<path class="st0" d="M419.3,99.1c-3.8,20.1-21.5,35.4-42.8,35.4s-39-15.3-42.8-35.4c-0.5-2.6-0.8-5.4-0.8-8.1c0-1,0-1.9,0.1-2.9
		c0.3-3.8,1-7.6,2.2-11.1h82.5h11.5c-1-3.9-2.5-7.5-4.2-11c-9.1-17.6-27.4-29.6-48.5-29.6S337,48.4,328,66c-1.8,3.5-3.2,7.2-4.2,11
		c-0.9,3.6-1.5,7.3-1.7,11.1c0,1-0.1,1.9-0.1,2.9c0,2.8,0.2,5.5,0.6,8.1c3.9,26.3,26.6,46.4,54,46.4s50-20.1,54-46.4H419.3z
		 M376.5,47.4c14.8,0,27.8,7.4,35.7,18.6h-71.4C348.7,54.7,361.7,47.4,376.5,47.4"/>
	<path class="st0" d="M101.2,10.8c-6.1,0-11,4.9-11,11v5.5v90.9v13.5l0,0c0,1.5-1.2,2.8-2.8,2.8c-1.5,0-2.8-1.2-2.8-2.8l0,0v-13.5
		V27.3v-5.5c0-6.1-4.9-11-11-11h-63v16.5h53.5h4l0,0c3,0,5.5,2.5,5.5,5.5l0,0l0,0v98.9c0,4.8,2.5,9.1,6.3,11.5
		c2.2,1.4,4.7,2.2,7.5,2.2s5.4-0.8,7.5-2.2c3.8-2.5,6.3-6.7,6.3-11.5V32.8l0,0c0-3,2.5-5.5,5.5-5.5l0,0l0,0h4h53.7V10.8H101.2z"/>
	<path class="st0" d="M216.2,90.9c0-30.1-24.4-54.6-54.6-54.6c-30.1,0-54.6,24.4-54.6,54.6c0,30.1,24.4,54.6,54.6,54.6
		c17.8,0,33.6-8.5,43.6-21.7v19.4h11V90.9L216.2,90.9z M161.6,134.5c-24.1,0-43.6-19.5-43.6-43.6s19.5-43.6,43.6-43.6
		c24.1,0,43.6,19.5,43.6,43.6S185.7,134.5,161.6,134.5"/>
</g>
</svg>
