<svg width="32" height="32" viewBox="0 0 32 32" fill="none" xmlns="http://www.w3.org/2000/svg">
<g clip-path="url(#clip0_253_17413)">
<path d="M1.5 18.5H4.5L5 19.5L7 19L8 28.5H6.5H6V29.5L1.5 30V18.5Z" fill="#AEE6B9"/>
<path d="M18.7619 7C17.3651 7.92318 14.2571 10.8773 13 15.3086C14.9206 17.3396 19.8095 20.183 24 15.3086C23.6508 13.093 22.1143 8.32938 18.7619 7Z" fill="#AEE6B9"/>
<path d="M7.43552 19.3881L7.34141 18.9175C7.29435 18.6822 7.10611 18.494 6.87082 18.5411L5.1767 18.5881L5.12964 18.3999C5.08258 18.1646 4.89435 17.9764 4.65905 17.9764H1.41199C1.12964 17.9764 0.941406 18.1646 0.941406 18.4469V30.5881C0.941406 30.8705 1.22376 31.1058 1.50611 31.0587L6.40023 30.0234C6.63552 29.9764 6.82376 29.7411 6.7767 29.5058L6.72964 29.0822L8.42376 29.0352C8.70611 29.0352 8.94141 28.7528 8.89435 28.4705L8.75317 27.4822H9.03552C11.7179 26.3058 13.8355 28.0469 13.9296 28.0469C16.612 29.7411 20.0943 29.5999 22.6355 27.6705L30.212 21.8822C31.2002 21.1293 31.4355 19.7175 30.5885 18.6352C30.0238 17.8822 29.0826 17.5999 28.1885 17.7881C29.4591 15.6234 30.0238 13.0822 29.6473 10.4469C28.9414 5.45871 24.8002 1.50577 19.812 1.03518C13.1767 0.376359 7.5767 5.59989 7.5767 12.094C7.5767 12.6587 7.62376 13.2234 7.71788 13.7881L6.54141 12.9411C6.30611 12.7999 6.02376 12.8469 5.88258 13.0352C5.74141 13.2705 5.78847 13.5528 5.9767 13.694L8.09435 15.1999C8.32964 15.3411 8.61199 15.294 8.75317 15.1058L10.2591 12.9881C10.4002 12.7528 10.3532 12.4705 10.1649 12.3293C9.92964 12.1881 9.64729 12.2352 9.50611 12.4234L8.61199 13.6469C8.51788 13.1293 8.47082 12.6117 8.47082 12.0469C8.47082 6.30577 13.2708 1.64695 19.1061 1.9293C24.2826 2.16459 28.5179 6.39989 28.8002 11.5293C28.9414 14.6352 27.7179 17.5528 25.4591 19.5764C25.0355 19.9058 24.6591 20.1881 24.3767 20.3764C24.1885 20.5175 24.1414 20.8469 24.2826 21.0352C24.4238 21.2234 24.7532 21.2705 24.9414 21.1293C26.0238 20.3293 27.812 18.9646 27.8591 18.9175C28.4708 18.4469 29.3649 18.5881 29.8826 19.2469C30.3061 19.8117 30.1649 20.6587 29.5532 21.0822L22.0238 26.8705C19.812 28.5646 16.7532 28.7058 14.4002 27.1999C14.2591 27.1528 11.8591 25.1293 8.61199 26.5411C8.61199 26.5411 8.56494 26.5411 8.56494 26.5881L7.5767 20.4234C9.03552 19.2469 10.9649 18.8234 12.8002 19.2469L20.9885 21.2234C21.5061 21.3646 21.8826 21.7411 21.9296 22.2587C21.9767 23.0587 21.3179 23.6705 20.612 23.5293L16.2826 22.9646C16.0002 22.9175 15.7649 23.1058 15.7649 23.3881C15.7179 23.6234 15.9061 23.8587 16.1885 23.9058L20.5179 24.4705C21.6943 24.6117 22.7296 23.8117 22.9179 22.6352C23.0591 21.5528 22.3532 20.5646 21.3179 20.2822L13.0826 18.3058C11.1061 17.9293 9.03552 18.3058 7.43552 19.3881ZM1.88258 29.9764V18.9646H4.23552L5.78847 29.1764L1.88258 29.9764ZM6.58847 28.094L5.31788 19.5293L6.49435 19.4822C6.96494 22.3058 7.62376 26.5881 7.85905 28.0469L6.58847 28.094Z" fill="#024430"/>
<path d="M13.0352 14.6824C13.0352 16.9882 15.294 18.4941 18.8234 18.4941C22.3528 18.4941 24.6116 16.9882 24.6116 14.6824C24.6116 12.6588 22.8705 8.65883 20.3763 7.38824C21.4587 6.54118 22.1646 4.98824 22.1646 4.14118C22.1646 3.95294 22.0704 3.81177 21.9293 3.71765C21.7881 3.62353 21.5999 3.62353 21.4587 3.71765C20.4704 4.28236 19.9528 4.47059 19.0587 4.04706C18.1646 3.62353 16.894 3.10589 15.7646 3.71765C15.6234 3.81177 15.5293 3.95294 15.5293 4.14118C15.5293 4.98824 16.2352 6.54118 17.3175 7.38824C14.7763 8.70589 13.0352 12.7059 13.0352 14.6824ZM16.4705 4.47059C17.1763 4.28236 18.0234 4.61177 18.6352 4.94118C19.5763 5.41177 20.3293 5.36471 21.0352 5.08236C20.6116 6.02353 19.6704 7.29412 18.6352 7.10589C17.5528 6.87059 16.6587 5.36471 16.4705 4.47059ZM18.541 8C18.8234 8.04706 18.8234 8.04706 19.1057 8C21.5528 8.32941 23.6705 12.7059 23.6705 14.7294C23.6705 16.8471 21.0822 17.6 18.8234 17.6C16.6116 17.6 13.9763 16.8471 13.9763 14.7294C13.9763 12.7059 16.094 8.32941 18.541 8Z" fill="#024430"/>
<path d="M19.0597 15.0116C18.5891 15.0116 18.2127 14.6352 18.2127 14.1646C18.2127 13.8822 18.0244 13.694 17.7421 13.694C17.4597 13.694 17.2715 13.8822 17.2715 14.1646C17.2715 14.9646 17.8362 15.6705 18.5891 15.8587V16.1881C18.5891 16.4705 18.7774 16.6587 19.0597 16.6587C19.3421 16.6587 19.5303 16.4705 19.5303 16.1881V15.8587C20.2832 15.6705 20.848 14.9646 20.848 14.1646C20.848 13.1763 20.048 12.3763 19.0597 12.3763C18.5891 12.3763 18.2127 11.9999 18.2127 11.5293C18.2127 11.0587 18.5891 10.6822 19.0597 10.6822C19.5303 10.6822 19.9068 11.0587 19.9068 11.5293C19.9068 11.8116 20.095 11.9999 20.3774 11.9999C20.6597 11.9999 20.848 11.8116 20.848 11.5293C20.848 10.7293 20.2832 10.0234 19.5303 9.83516V9.50574C19.5303 9.22339 19.3421 9.03516 19.0597 9.03516C18.7774 9.03516 18.5891 9.22339 18.5891 9.50574V9.83516C17.8362 10.0234 17.2715 10.7293 17.2715 11.5293C17.2715 12.5175 18.0715 13.3175 19.0597 13.3175C19.5303 13.3175 19.9068 13.694 19.9068 14.1646C19.9068 14.6352 19.5303 15.0116 19.0597 15.0116Z" fill="#024430"/>
</g>
<defs>
<clipPath id="clip0_253_17413">
<rect width="32" height="32" fill="white"/>
</clipPath>
</defs>
</svg>
