<svg width="32" height="32" viewBox="0 0 32 32" fill="none" xmlns="http://www.w3.org/2000/svg">
<g clip-path="url(#clip0_253_17403)">
<path fill-rule="evenodd" clip-rule="evenodd" d="M16.8324 14C18.1748 15.9426 20.9353 19.1336 23.5 19.5C24.4253 19.1034 25.7334 18.3451 27 17.25V29C27 30.1046 26.1046 31 25 31H3C1.89543 31 1 30.1046 1 29V16C1 14.8954 1.89543 14 3 14H16.8324Z" fill="#AEE6B9"/>
<path d="M30.72 2.19686C29.44 2.11366 26.2512 1.76166 24.32 0.288594C23.82 -0.0988023 23.1213 -0.0988023 22.6213 0.288594C20.6891 1.76166 17.5013 2.11366 16.2213 2.19686C15.4997 2.24178 14.9364 2.83859 14.9333 3.56166V7.86779C14.9338 9.95136 15.4222 12.0059 16.3595 13.8667H2.66667C1.19464 13.8685 0.00176326 15.0614 0 16.5334V29.3334C0.00176326 30.8054 1.19464 31.9983 2.66667 32.0001H25.0667C26.5387 31.9983 27.7316 30.8054 27.7333 29.3334V17.6614C30.4457 15.1253 31.9897 11.5811 32 7.86779V3.56166C31.9972 2.84148 31.4385 2.2458 30.72 2.19686ZM26.6667 29.3334C26.6667 30.2171 25.9503 30.9334 25.0667 30.9334H2.66667C1.78301 30.9334 1.06667 30.2171 1.06667 29.3334V16.5334C1.06667 15.6497 1.78301 14.9334 2.66667 14.9334H16.96C17.0427 15.0662 17.12 15.2001 17.2069 15.3323C18.62 17.4367 20.5933 19.1041 22.904 20.1462C23.2628 20.308 23.6737 20.308 24.0325 20.1462C24.9675 19.7224 25.8512 19.1937 26.6667 18.5702V29.3334ZM30.9333 7.86779C30.9156 12.7505 28.0446 17.1719 23.5915 19.1745C23.5119 19.2099 23.4209 19.2099 23.3413 19.1745C21.2117 18.2142 19.3931 16.6774 18.0912 14.7377C16.7255 12.7071 15.9974 10.3149 16 7.86779V3.56166C16.0011 3.40222 16.1256 3.27093 16.2848 3.26139C17.9963 3.15046 21.1781 2.72806 23.2635 1.13659C23.3827 1.04342 23.5501 1.04342 23.6693 1.13659C25.7552 2.72699 28.9371 3.15046 30.6485 3.26139C30.8077 3.27093 30.9322 3.40222 30.9333 3.56166V7.86779Z" fill="#024430"/>
<path d="M28.9565 4.16014C27.2212 3.94943 25.5382 3.42709 23.9885 2.61828C23.6648 2.43486 23.2685 2.43486 22.9448 2.61828C21.395 3.42725 19.7118 3.94959 17.9763 4.16014C17.4543 4.23771 17.0675 4.68526 17.0664 5.21294V7.86788C17.0641 10.1026 17.7287 12.2872 18.9752 14.142C19.9928 15.6527 21.3537 16.901 22.9464 17.7847C23.2697 17.9617 23.661 17.9617 23.9843 17.7847C27.6024 15.7946 29.8549 11.9972 29.8664 7.86788V5.21294C29.8653 4.68526 29.4785 4.23771 28.9565 4.16014ZM28.7997 7.86788C28.7888 11.6102 26.7463 15.0514 23.4664 16.8535H23.4611C22.0162 16.0511 20.7818 14.9179 19.8589 13.5468C18.7313 11.8678 18.1304 9.89042 18.1331 7.86788L18.1272 5.21401C19.9942 4.99008 21.8041 4.42457 23.4664 3.54574C25.127 4.42357 26.9348 4.98869 28.7997 5.21294V7.86788Z" fill="#024430"/>
<path d="M4.26602 20.8001H6.39935C7.283 20.8001 7.99935 20.0838 7.99935 19.2001V18.1334C7.99935 17.2498 7.283 16.5334 6.39935 16.5334H4.26602C3.38236 16.5334 2.66602 17.2498 2.66602 18.1334V19.2001C2.66602 20.0838 3.38236 20.8001 4.26602 20.8001ZM3.73268 18.1334C3.73268 17.8389 3.97146 17.6001 4.26602 17.6001H6.39935C6.6939 17.6001 6.93268 17.8389 6.93268 18.1334V19.2001C6.93268 19.4947 6.6939 19.7334 6.39935 19.7334H4.26602C3.97146 19.7334 3.73268 19.4947 3.73268 19.2001V18.1334Z" fill="#024430"/>
<path d="M3.19935 23.4668H5.33268C5.62723 23.4668 5.86602 23.228 5.86602 22.9335C5.86602 22.6389 5.62723 22.4001 5.33268 22.4001H3.19935C2.9048 22.4001 2.66602 22.6389 2.66602 22.9335C2.66602 23.228 2.9048 23.4668 3.19935 23.4668Z" fill="#024430"/>
<path d="M9.60026 22.4001H7.46693C7.17238 22.4001 6.93359 22.6389 6.93359 22.9335C6.93359 23.228 7.17238 23.4668 7.46693 23.4668H9.60026C9.89481 23.4668 10.1336 23.228 10.1336 22.9335C10.1336 22.6389 9.89481 22.4001 9.60026 22.4001Z" fill="#024430"/>
<path d="M13.8659 22.4001H11.7326C11.438 22.4001 11.1992 22.6389 11.1992 22.9335C11.1992 23.228 11.438 23.4668 11.7326 23.4668H13.8659C14.1604 23.4668 14.3992 23.228 14.3992 22.9335C14.3992 22.6389 14.1604 22.4001 13.8659 22.4001Z" fill="#024430"/>
<path d="M18.1335 22.4001H16.0001C15.7056 22.4001 15.4668 22.6389 15.4668 22.9335C15.4668 23.228 15.7056 23.4668 16.0001 23.4668H18.1335C18.428 23.4668 18.6668 23.228 18.6668 22.9335C18.6668 22.6389 18.428 22.4001 18.1335 22.4001Z" fill="#024430"/>
<path d="M22.9324 22.9335C22.9324 22.6389 22.6936 22.4001 22.3991 22.4001H20.2658C19.9712 22.4001 19.7324 22.6389 19.7324 22.9335C19.7324 23.228 19.9712 23.4668 20.2658 23.4668H22.3991C22.6936 23.4668 22.9324 23.228 22.9324 22.9335Z" fill="#024430"/>
<path d="M6.93411 25.6001H5.33411C5.03956 25.6001 4.80078 25.8389 4.80078 26.1334C4.80078 26.428 5.03956 26.6668 5.33411 26.6668H6.93411C7.22867 26.6668 7.46745 26.428 7.46745 26.1334C7.46745 25.8389 7.22867 25.6001 6.93411 25.6001Z" fill="#024430"/>
<path d="M6.93268 27.7334H3.19935C2.9048 27.7334 2.66602 27.9722 2.66602 28.2667C2.66602 28.5613 2.9048 28.8001 3.19935 28.8001H6.93268C7.22723 28.8001 7.46602 28.5613 7.46602 28.2667C7.46602 27.9722 7.22723 27.7334 6.93268 27.7334Z" fill="#024430"/>
<path d="M21.8674 7.4667V8.00003C21.2783 8.00003 20.8008 8.4776 20.8008 9.0667V12.2667C20.8008 12.8558 21.2783 13.3334 21.8674 13.3334H25.0674C25.6566 13.3334 26.1341 12.8558 26.1341 12.2667V9.0667C26.1341 8.4776 25.6566 8.00003 25.0674 8.00003V7.4667C25.0674 6.58304 24.3511 5.8667 23.4674 5.8667C22.5838 5.8667 21.8674 6.58304 21.8674 7.4667ZM22.9341 7.4667C22.9341 7.17215 23.1729 6.93337 23.4674 6.93337C23.762 6.93337 24.0008 7.17215 24.0008 7.4667V8.00003H22.9341V7.4667ZM24.5341 9.0667H25.0674V12.2667H21.8674V9.0667H24.5341Z" fill="#024430"/>
<path d="M23.4669 11.2C23.7615 11.2 24.0003 10.9612 24.0003 10.6666C24.0003 10.3721 23.7615 10.1333 23.4669 10.1333C23.1724 10.1333 22.9336 10.3721 22.9336 10.6666C22.9336 10.9612 23.1724 11.2 23.4669 11.2Z" fill="#024430"/>
<path d="M24.0008 28.2668H21.3341C21.0396 28.2668 20.8008 28.5055 20.8008 28.8001C20.8008 29.0946 21.0396 29.3334 21.3341 29.3334H24.5341C24.8287 29.3334 25.0674 29.0946 25.0674 28.8001V26.1334C25.0674 25.8389 24.8287 25.6001 24.5341 25.6001C24.2396 25.6001 24.0008 25.8389 24.0008 26.1334V28.2668Z" fill="#024430"/>
</g>
<defs>
<clipPath id="clip0_253_17403">
<rect width="32" height="32" fill="white"/>
</clipPath>
</defs>
</svg>
