<svg width="125" height="50" viewBox="0 0 125 50" fill="none" xmlns="http://www.w3.org/2000/svg">
<path fill-rule="evenodd" clip-rule="evenodd" d="M20.9826 21.3217L27.4436 22.0074C27.7851 22.043 28.0329 22.3423 27.9964 22.6757C27.9808 22.8196 27.9138 22.9467 27.8164 23.0418C27.5016 23.352 27.1966 23.6462 26.902 23.9295C24.9333 25.8254 23.4497 27.255 23.2764 29.7451C23.1841 31.07 23.9378 32.2947 24.7324 33.5848C25.9273 35.5265 27.204 37.6011 26.3588 40.6004C25.9489 42.0561 25.2242 43.3745 24.2853 44.5869C23.3627 45.7782 22.2258 46.8736 20.9744 47.9014C20.7683 48.07 20.4834 48.0867 20.2639 47.9625L16.8637 46.0462L17.7313 45.1338L20.5064 46.6985C21.5533 45.8116 22.5048 44.8702 23.2905 43.8554C24.1424 42.7549 24.7964 41.5716 25.1602 40.2829C25.8648 37.7827 24.7287 35.9369 23.6655 34.2095C22.7675 32.7516 21.9156 31.3671 22.0346 29.6659C22.2392 26.7232 23.8619 25.1549 26.0158 23.0803L20.098 22.452L20.9826 21.3217Z" fill="#2D7CFE"/>
<path fill-rule="evenodd" clip-rule="evenodd" d="M5.0883 18.2941L17.241 19.5842C14.7352 22.0569 12.7353 23.5699 12.5188 26.6775C12.2725 30.2114 16.9791 32.6035 15.6228 37.4137C14.849 40.1595 12.8677 42.415 10.4385 44.4104L0 38.5265C1.85036 37.3498 3.7037 35.2795 3.96559 33.0611C4.33164 29.9644 0.844454 26.9673 1.72016 23.9695C2.31314 21.9355 3.42692 19.8428 5.0883 18.2941Z" fill="#2D7CFE"/>
<path fill-rule="evenodd" clip-rule="evenodd" d="M11.6765 15.281L25.4653 16.7367C25.8068 16.7723 26.0546 17.0716 26.0181 17.405C26.0003 17.5699 25.9162 17.7123 25.7949 17.8096L24.6878 18.7227C21.7155 21.167 19.8994 22.5704 18.7357 26.1087C18.0921 28.0657 18.7342 29.8359 19.4529 31.8153C20.3071 34.1674 21.2602 36.7941 20.5355 40.4399C20.1538 42.3576 19.2669 44.0494 18.0207 45.6046C16.7931 47.1351 15.2262 48.5269 13.4555 49.8722C13.2337 50.04 12.9332 50.0393 12.7144 49.8896L2.32205 42.914C2.02891 42.7397 1.93665 42.3656 2.11521 42.0794C2.16953 41.9929 2.24244 41.9239 2.32577 41.8753C3.66499 41.0733 5.40301 39.4687 6.48108 38.1619C7.39473 37.0541 8.09187 35.8214 8.36492 34.5619C8.74734 32.7996 8.05839 30.9756 7.37613 29.1676C6.53762 26.947 5.70656 24.746 6.60756 22.439C7.1745 20.9891 7.93786 19.5152 8.89094 18.1387C9.75994 16.8835 10.0122 16.4447 11.2004 15.4299C11.3373 15.313 11.5106 15.2643 11.6765 15.281ZM23.8917 17.7929L11.8179 16.5181C10.8038 17.4166 10.69 17.713 9.92586 18.8179C9.02784 20.1152 8.30838 21.5041 7.77417 22.8712C7.03909 24.7533 7.7898 26.7422 8.5472 28.7485C9.29122 30.7192 10.0419 32.7074 9.5851 34.8132C9.2689 36.2718 8.48024 37.6759 7.45202 38.9224C6.50489 40.0716 4.98338 41.568 3.80784 42.3765L13.0284 48.6526C14.5938 47.4395 15.9695 46.1952 17.0423 44.8579C18.171 43.4494 18.9723 41.9268 19.3138 40.2118C19.9752 36.8878 19.0809 34.426 18.2804 32.2207C17.488 30.0393 16.7804 28.0882 17.5527 25.7383C18.8243 21.8716 20.7698 20.3622 23.8895 17.7973L23.8917 17.7929Z" fill="#2D7CFE"/>
<path fill-rule="evenodd" clip-rule="evenodd" d="M4.75947 20.3753C4.55487 20.3528 4.40755 20.1712 4.43062 19.9714C4.45368 19.7717 4.63968 19.6278 4.84429 19.6503L14.1519 20.6971C14.3565 20.7196 14.5038 20.9012 14.4807 21.101C14.4577 21.3007 14.2717 21.4446 14.0671 21.422L4.75947 20.3753ZM3.50283 24.5143C3.29823 24.4918 3.15091 24.3102 3.17398 24.1104C3.19704 23.9107 3.38305 23.7669 3.58765 23.7894L8.61643 24.3552C8.82104 24.3778 8.96835 24.5594 8.94529 24.7591C8.92222 24.9589 8.73622 25.1027 8.53161 25.0802L3.50283 24.5143ZM3.668 22.3998C3.4634 22.3773 3.31608 22.1957 3.33915 21.9959C3.36221 21.7961 3.54822 21.6523 3.75282 21.6748L10.7979 22.4673C11.0025 22.4898 11.1498 22.6714 11.1267 22.8712C11.1037 23.071 10.9177 23.2148 10.7131 23.1923L3.668 22.3998Z" fill="white"/>
<path fill-rule="evenodd" clip-rule="evenodd" d="M5.57566 33.7286C5.28475 35.4713 3.75506 37.1398 2.63606 38.1771C3.34511 38.6238 3.85848 38.9471 4.56752 39.3946C6.22965 38.2069 7.69684 36.6393 7.71767 34.4913L5.57566 33.7286ZM7.81886 31.7949L10.1208 32.2235C10.4065 33.2666 10.7294 34.1972 10.7763 35.2606C10.8768 37.5604 9.28307 39.8805 7.53985 41.1256C6.83081 40.6781 6.12102 40.2314 5.41198 39.7839C6.57933 38.7016 8.19384 36.9328 8.38282 35.1088C8.50186 33.9516 8.2117 32.8838 7.81886 31.7949ZM9.75924 29.4734C10.0621 31.9402 11.9645 33.3436 11.3663 36.4751C11.0226 38.2766 9.5472 40.0817 8.37984 41.1641C9.08889 41.6115 9.57101 41.9152 10.2801 42.3619C12.024 41.1168 13.0656 39.359 13.7382 37.2974C14.7828 34.0955 12.3611 32.1952 11.844 29.8569C11.0605 29.7131 10.5427 29.6172 9.75924 29.4734Z" fill="white"/>
<ellipse cx="17.5" cy="6.94444" rx="6.65" ry="6.94444" fill="#2D7CFE"/>
<path d="M23.05 6.25C23.05 9.28194 20.5708 11.75 17.5 11.75C14.4292 11.75 11.95 9.28194 11.95 6.25C11.95 3.21806 14.4292 0.75 17.5 0.75C20.5708 0.75 23.05 3.21806 23.05 6.25Z" fill="white" stroke="#2D7CFE" stroke-width="1.5"/>
<path d="M38.3125 32.125V46H31.6563V22H38V26.2344H38.2812C38.8125 24.8385 39.7031 23.7344 40.9531 22.9219C42.2031 22.099 43.7187 21.6875 45.5 21.6875C47.1667 21.6875 48.6198 22.0521 49.8594 22.7812C51.099 23.5104 52.0625 24.5521 52.75 25.9062C53.4375 27.25 53.7813 28.8542 53.7813 30.7187V46H47.125V31.9062C47.1354 30.4375 46.7604 29.2917 46 28.4688C45.2396 27.6354 44.1927 27.2187 42.8594 27.2187C41.9635 27.2187 41.1719 27.4115 40.4844 27.7969C39.8073 28.1823 39.276 28.7448 38.8906 29.4844C38.5156 30.2135 38.3229 31.0938 38.3125 32.125ZM80.543 22L72.1523 46H64.6523L56.2617 22H63.293L68.2773 39.1719H68.5273L73.4961 22H80.543ZM90.1484 46.4531C88.6172 46.4531 87.2526 46.1875 86.0547 45.6562C84.8568 45.1146 83.9089 44.3177 83.2109 43.2656C82.5234 42.2031 82.1797 40.8802 82.1797 39.2969C82.1797 37.9635 82.4245 36.8437 82.9141 35.9375C83.4036 35.0313 84.0703 34.3021 84.9141 33.75C85.7578 33.1979 86.7161 32.7812 87.7891 32.5C88.8724 32.2187 90.0078 32.0208 91.1953 31.9062C92.5911 31.7604 93.7161 31.625 94.5703 31.5C95.4245 31.3646 96.0443 31.1667 96.4297 30.9062C96.8151 30.6458 97.0078 30.2604 97.0078 29.75V29.6562C97.0078 28.6667 96.6953 27.901 96.0703 27.3594C95.4557 26.8177 94.5807 26.5469 93.4453 26.5469C92.2474 26.5469 91.2943 26.8125 90.5859 27.3437C89.8776 27.8646 89.4089 28.5208 89.1797 29.3125L83.0234 28.8125C83.3359 27.3542 83.9505 26.0937 84.8672 25.0312C85.7839 23.9583 86.9661 23.1354 88.4141 22.5625C89.8724 21.9792 91.5599 21.6875 93.4766 21.6875C94.8099 21.6875 96.0859 21.8437 97.3047 22.1562C98.5339 22.4687 99.6224 22.9531 100.57 23.6094C101.529 24.2656 102.284 25.1094 102.836 26.1406C103.388 27.1615 103.664 28.3854 103.664 29.8125V46H97.3516V42.6719H97.1641C96.7786 43.4219 96.263 44.0833 95.6172 44.6562C94.9714 45.2187 94.1953 45.6615 93.2891 45.9844C92.3828 46.2969 91.3359 46.4531 90.1484 46.4531ZM92.0547 41.8594C93.0339 41.8594 93.8984 41.6667 94.6484 41.2812C95.3984 40.8854 95.987 40.3542 96.4141 39.6875C96.8411 39.0208 97.0547 38.2656 97.0547 37.4219V34.875C96.8464 35.0104 96.5599 35.1354 96.1953 35.25C95.8411 35.3542 95.4401 35.4531 94.9922 35.5469C94.5443 35.6302 94.0964 35.7083 93.6484 35.7812C93.2005 35.8437 92.7943 35.901 92.4297 35.9531C91.6484 36.0677 90.9661 36.25 90.3828 36.5C89.7995 36.75 89.3464 37.0885 89.0234 37.5156C88.7005 37.9323 88.5391 38.4531 88.5391 39.0781C88.5391 39.9844 88.8672 40.6771 89.5234 41.1562C90.1901 41.625 91.0339 41.8594 92.0547 41.8594ZM108.828 46V22H115.281V26.1875H115.531C115.969 24.6979 116.703 23.5729 117.734 22.8125C118.766 22.0417 119.953 21.6562 121.297 21.6562C121.63 21.6562 121.99 21.6771 122.375 21.7187C122.76 21.7604 123.099 21.8177 123.391 21.8906V27.7969C123.078 27.7031 122.646 27.6198 122.094 27.5469C121.542 27.474 121.036 27.4375 120.578 27.4375C119.599 27.4375 118.724 27.651 117.953 28.0781C117.193 28.4948 116.589 29.0781 116.141 29.8281C115.703 30.5781 115.484 31.4427 115.484 32.4219V46H108.828Z" fill="#010F1C"/>
</svg>
